<?xml version="1.0" standalone="no"?>
<!DOCTYPE svg PUBLIC "-//W3C//DTD SVG 20010904//EN"
 "http://www.w3.org/TR/2001/REC-SVG-20010904/DTD/svg10.dtd">
<svg version="1.0" xmlns="http://www.w3.org/2000/svg"
 width="600.000000pt" height="600.000000pt" viewBox="0 0 600.000000 600.000000"
 style="background:white" preserveAspectRatio="xMidYMid meet">

<g transform="translate(0.000000,600.000000) scale(0.100000,-0.100000)"
fill="#000000" stroke="none">
<path d="M0 3000 l0 -3000 3000 0 3000 0 0 3000 0 3000 -3000 0 -3000 0 0
-3000z m3524 173 c-1 -353 1 -463 10 -451 6 9 117 219 246 467 l235 451 823 2
c453 2 826 0 828 -3 3 -5 -30 -140 -87 -351 l-10 -38 -174 0 c-96 0 -175 3
-175 8 0 4 7 32 15 62 8 30 15 56 15 58 0 1 -83 2 -184 2 l-183 0 -32 -122
c-18 -68 -36 -135 -41 -150 -4 -14 -6 -29 -3 -32 4 -3 165 -6 360 -6 194 0
353 -3 353 -6 0 -6 -134 -526 -192 -746 l-20 -78 -577 0 c-318 0 -580 2 -582
5 -3 2 17 95 44 205 l49 200 203 0 203 0 -13 -42 c-6 -24 -15 -55 -19 -70 l-6
-28 219 0 219 0 11 33 c6 17 22 82 36 142 14 61 28 118 31 128 5 16 -19 17
-411 17 -392 0 -416 1 -411 18 16 54 136 524 136 532 0 6 -26 10 -58 10 l-57
0 -334 -575 -333 -575 -254 0 -254 0 0 33 c-1 104 -49 1039 -54 1044 -3 3 -29
2 -57 -3 l-52 -9 -74 -265 c-40 -146 -80 -289 -88 -317 l-16 -53 -132 0 c-73
0 -256 -3 -408 -7 l-276 -6 -48 -186 c-26 -102 -52 -196 -56 -208 -8 -23 -10
-23 -224 -23 -118 0 -215 3 -215 7 0 5 253 989 266 1036 5 16 -12 17 -255 17
-143 0 -262 -3 -264 -7 -3 -5 -60 -219 -127 -478 -66 -258 -128 -494 -136
-522 l-15 -53 -214 0 c-198 0 -215 1 -215 18 1 9 60 247 134 527 l133 510
-209 3 c-114 1 -208 5 -208 9 0 7 77 307 84 328 2 7 526 9 1552 8 l1549 -3 -1
-467z"/>
<path d="M2157 3293 c-3 -5 -19 -62 -36 -128 -18 -66 -34 -128 -37 -137 -5
-17 9 -18 198 -18 l204 0 40 145 41 145 -203 0 c-112 0 -205 -3 -207 -7z"/>
</g>
</svg>
