<?xml version="1.0" encoding="utf-8"?>
<!-- Generator: Adobe Illustrator 21.1.0, SVG Export Plug-In . SVG Version: 6.00 Build 0)  -->
<svg version="1.1" id="Layer_1" xmlns="http://www.w3.org/2000/svg" xmlns:xlink="http://www.w3.org/1999/xlink" x="0px" y="0px"
	 viewBox="0 0 500 160.3" style="enable-background:new 0 0 500 160.3;" xml:space="preserve">
<style type="text/css">
	.st0{fill:#231916;}
	.st1{fill:#D70E19;}
</style>
<g>
	<g>
		<g>
			<path class="st0" d="M170.4,120.5v23.5h42v-23.5H170.4z M205.3,137.6h-28v-10.8h28V137.6z"/>
			<rect x="187.8" y="112.5" class="st0" width="7.2" height="45.1"/>
			<path class="st0" d="M223.9,114.6v41.9h42.7v-41.9H223.9z M259.9,150.6h-29.2v-30.6h29.2V150.6z"/>
			<rect x="232.5" y="123" class="st0" width="25.5" height="5.3"/>
			<rect x="233.4" y="131.7" class="st0" width="23.8" height="5.3"/>
			<rect x="232.5" y="142.9" class="st0" width="25.5" height="5.3"/>
			<polygon class="st0" points="253,136 249.4,139.1 253.6,144.1 257.8,140.7 			"/>
			<rect x="241.4" y="127.9" class="st0" width="6.6" height="15.9"/>
			<path class="st0" d="M283.9,112.6c0,0-1.6,9.4-9.2,17.5l4.5,4.6c0,0,8.3-10.1,10.5-21.1L283.9,112.6z"/>
			<rect x="285.4" y="118.1" class="st0" width="10.1" height="5.2"/>
			<rect x="280.3" y="126.5" class="st0" width="14" height="5.2"/>
			<rect x="278.5" y="136.3" class="st0" width="17" height="5.2"/>
			<polygon class="st0" points="283.7,130.7 283.7,157.5 295.5,150 295.5,143.7 290.1,146.8 290.1,131 			"/>
			<path class="st0" d="M300.1,114.8c0,0-1.7,7.6-5.1,14.9l5.5,2.3c0,0,3.6-7.6,5.2-15.8L300.1,114.8z"/>
			<polygon class="st0" points="323.2,126.5 301.8,126.5 303.4,120.9 323.2,120.9 			"/>
			<rect x="296.5" y="132.8" class="st0" width="28.1" height="5.7"/>
			<path class="st0" d="M307.4,112.7c0,0,0.4,9.7-0.4,18.4c-0.7,8-2.6,14.6-12,21.2l4.4,5.1c0,0,9.9-6.8,12.2-17.1
				c0.8-3.5,2-7.8,2-14.4c0.1-6.6,0-13.3,0-13.3L307.4,112.7z"/>
			<path class="st0" d="M313.5,126.9c0,0,0.1,5.4,0.3,8.3c0.2,2.9,1.8,9.7,10.9,16.1l-3.8,6.4c0,0-9.6-7.1-11.2-17.1l0.8-12.9
				L313.5,126.9z"/>
			<rect x="332.4" y="124.1" class="st0" width="14.5" height="6.2"/>
			<rect x="336.7" y="112.5" class="st0" width="6.2" height="32.9"/>
			<path class="st0" d="M331.7,145.9c0,0,9.3-2,15-4v6.1c0,0-5.1,1.9-14,4.5L331.7,145.9z"/>
			<rect x="345.9" y="116.4" class="st0" width="32.4" height="4.8"/>
			<rect x="351.4" y="112.7" class="st0" width="6" height="12"/>
			<rect x="366.6" y="112.7" class="st0" width="6" height="12"/>
			<path class="st0" d="M359.1,123.2c0,0-2.8,4.9-14.6,10.4l3.6,5.5c0,0,10.3-6.2,13.7-10.9c0,0,5.2,6.6,13.4,10.4l3.4-5.3
				c0,0-8.9-3.7-14.4-10.1H359.1z"/>
			<rect x="353.7" y="133.1" class="st0" width="16.4" height="4.7"/>
			<path class="st0" d="M349.3,140.5v16h25.3v-16H349.3z M368.5,151.4h-13.3v-5.7h13.3V151.4z"/>
		</g>
		<path class="st1" d="M200.2,66.3h-10.6v-6.8h30.2v6.8H209v28.9h-8.9V66.3z"/>
		<path class="st0" d="M240.6,95.8c-11.6,0-18.5-8-18.5-18.2c0-10.7,7.6-18.7,19.1-18.7c12.1,0,18.6,8.2,18.6,18.1
			C259.9,88.8,252.2,95.8,240.6,95.8L240.6,95.8z M241,89.4c6,0,9.4-5.1,9.4-12.1c0-6.4-3.3-11.9-9.4-11.9c-6.1,0-9.6,5.4-9.6,12.1
			C231.5,84.2,235,89.4,241,89.4L241,89.4z"/>
		<path class="st0" d="M271.6,95.3l-9.3-35.7h9.5l3,14.7c0.9,4.3,1.7,8.9,2.3,12.5h0.1c0.6-3.9,1.6-8.2,2.6-12.7l3.3-14.6h9.4
			l3.1,15c0.9,4.2,1.5,8,2.1,12h0.1c0.6-4,1.5-8.2,2.3-12.4l3.2-14.6h9l-10.1,35.7h-9.6l-3.3-15.4c-0.8-3.6-1.4-6.9-1.9-11h-0.1
			c-0.7,4-1.3,7.4-2.3,11l-3.7,15.4H271.6z"/>
		<path class="st0" d="M341.1,80.2h-14.4v8.5h16.1v6.6h-25V59.6h24.2v6.6h-15.3v7.4h14.4V80.2z"/>
		<path class="st0" d="M349.1,60.1c2.9-0.5,7-0.8,11.8-0.8c5.8,0,9.9,0.8,12.7,2.9c2.4,1.7,3.7,4.2,3.7,7.5c0,4.5-2.4,9.3-7,10.9
			c0,0,7.8,13.4,8.5,14.8h-9.1l-8.1-14h-3.6v14h-8.8V60.1z M357.9,75.4h3.5c4.4,0,7-2,7-5.1c0-3.2-2.4-4.9-6.5-4.9
			c-2.2,0-3.4,0.1-4,0.3V75.4z"/>
		<path class="st0" d="M33.2,94.1c-1.6,0.7-5.3,1.5-10,1.5c-13.6,0-20.6-7.7-20.6-18c0-12.2,9.6-18.9,21.5-18.9
			c4.6,0,8.1,0.9,9.7,1.6l-1.9,6.4c-1.8-0.7-4.3-1.3-7.5-1.3c-7,0-12.5,3.9-12.5,11.9c0,7.2,4.7,11.7,12.6,11.7
			c2.7,0,5.7-0.5,7.5-1.2L33.2,94.1z"/>
		<path class="st0" d="M49.2,59.3v13.8h14.6V59.3h8.9v35.7h-8.9V80.2H49.2v14.9h-8.9V59.3H49.2z"/>
		<path class="st0" d="M97.7,95.1V59.3h10.4l8.2,13.1c2.3,3.8,4.6,8.2,6.4,12.2h0.1c-0.5-4.7-0.7-9.5-0.7-15V59.3h8.2v35.7h-9.3
			l-8.4-13.8c-2.3-3.9-5-8.4-6.8-12.6h-0.2c0.3,4.8,0.4,9.8,0.4,15.6v10.8H97.7z"/>
		<path class="st0" d="M163,95.1h9.2l-12.3-35.7h-11.6l-12,35.7h8.8l2.8-9.3H160L163,95.1z M149.9,78.7l3.7-12.5h0.2l4,12.5H149.9z"
			/>
		<rect x="81.1" y="59.3" class="st0" width="8.2" height="35.8"/>
	</g>
	<g>
		<path class="st1" d="M445.3,5.2c-1.9,6.6-14.9,51.8-18.5,64.4c-0.6,1.9-0.8,3.8,0,6.5c0.9,2.9,3.2,11.1,4.2,14.4
			c0.2,0.7,0.5,1.3,1,1.3c0.4,0,0.7-0.5,1-1.1c3-7.9,15.2-45.1,15.2-45.1s11.6,36.4,14.7,44.9c0.3,0.9,0.5,1.3,1.1,1.3
			c0.4,0,0.7-0.6,0.9-1.2c1-3.4,3.4-11.8,4.2-14.6c0.8-2.8,0.8-4.5,0.3-6.3c-2.9-10.2-16.6-57.7-18.6-64.4c-0.6-2-1.5-3.1-2.8-3.1
			C446.7,2.1,445.8,3.2,445.3,5.2z"/>
	</g>
	<g>
		<path class="st1" d="M473.8,121.6c0,0,8,26.8,10.6,34.6c0.1,0.4,0.6,1.4,1.6,1.4c0.9,0,11.4,0,11.4,0c-3.6-12.4-16-56.3-20.7-72.5
			c-0.3-0.9-1-3.3-2.9-3.3c-1.9,0-2.7,2.3-3,3.2c-4.7,16.3-17.3,60.2-20.8,72.6c0,0,9.6,0,11.1,0c1.5,0,1.7-0.8,1.9-1.3
			C465.9,148,473.8,121.6,473.8,121.6z"/>
		<path class="st1" d="M422.1,121.6c0,0,8,26.8,10.6,34.6c0.1,0.4,0.6,1.4,1.6,1.4c0.9,0,11.4,0,11.4,0c-3.5-12.4-16-56.3-20.7-72.5
			c-0.3-0.9-1-3.3-2.9-3.3c-1.9,0-2.7,2.3-3,3.2c-4.7,16.3-17.3,60.2-20.8,72.6c0,0,9.6,0,11.1,0c1.5,0,1.7-0.8,1.9-1.3
			C414.2,148,422.1,121.6,422.1,121.6z"/>
	</g>
</g>
</svg>
